<svg xmlns="http://www.w3.org/2000/svg" xmlns:xlink="http://www.w3.org/1999/xlink" width="1080" zoomAndPan="magnify" viewBox="0 0 810 809.999993" height="1080" preserveAspectRatio="xMidYMid meet" version="1.0"><defs><clipPath id="3d566da6eb"><path d="M 3.070312 408.070312 L 806.929688 408.070312 L 806.929688 810 L 3.070312 810 Z M 3.070312 408.070312 " clip-rule="nonzero"/></clipPath><clipPath id="86646c81f9"><path d="M 3.066406 0 L 404.996094 0 L 404.996094 408.066406 L 3.066406 408.066406 Z M 3.066406 0 " clip-rule="nonzero"/></clipPath><clipPath id="fe0610ecb8"><path d="M 266.132812 168.808594 L 301.78125 168.808594 L 301.78125 195.96875 L 266.132812 195.96875 Z M 266.132812 168.808594 " clip-rule="nonzero"/></clipPath><clipPath id="bb406630f8"><path d="M 283.933594 168.808594 C 274.101562 168.808594 266.132812 174.886719 266.132812 182.386719 C 266.132812 189.886719 274.101562 195.96875 283.933594 195.96875 C 293.765625 195.96875 301.738281 189.886719 301.738281 182.386719 C 301.738281 174.886719 293.765625 168.808594 283.933594 168.808594 Z M 283.933594 168.808594 " clip-rule="nonzero"/></clipPath><clipPath id="24cfa9d72b"><path d="M 581.640625 169.582031 L 617.289062 169.582031 L 617.289062 196.742188 L 581.640625 196.742188 Z M 581.640625 169.582031 " clip-rule="nonzero"/></clipPath><clipPath id="afb76f5b0d"><path d="M 599.445312 169.582031 C 589.609375 169.582031 581.640625 175.664062 581.640625 183.164062 C 581.640625 190.664062 589.609375 196.742188 599.445312 196.742188 C 609.277344 196.742188 617.246094 190.664062 617.246094 183.164062 C 617.246094 175.664062 609.277344 169.582031 599.445312 169.582031 Z M 599.445312 169.582031 " clip-rule="nonzero"/></clipPath><clipPath id="25433fbe22"><path d="M 418.5 564.152344 L 462.425781 564.152344 L 462.425781 591.316406 L 418.5 591.316406 Z M 418.5 564.152344 " clip-rule="nonzero"/></clipPath><clipPath id="8d53d0f989"><path d="M 440.453125 564.152344 C 428.332031 564.152344 418.5 570.234375 418.5 577.734375 C 418.5 585.234375 428.332031 591.316406 440.453125 591.316406 C 452.578125 591.316406 462.40625 585.234375 462.40625 577.734375 C 462.40625 570.234375 452.578125 564.152344 440.453125 564.152344 Z M 440.453125 564.152344 " clip-rule="nonzero"/></clipPath><clipPath id="f0956466f5"><path d="M 425.394531 151.773438 L 455.5 151.773438 L 455.5 187.40625 L 425.394531 187.40625 Z M 425.394531 151.773438 " clip-rule="nonzero"/></clipPath><clipPath id="8cc0e4efa5"><path d="M 455.5 169.578125 C 455.5 159.746094 448.761719 151.773438 440.445312 151.773438 C 432.132812 151.773438 425.394531 159.746094 425.394531 169.578125 C 425.394531 179.410156 432.132812 187.378906 440.445312 187.378906 C 448.761719 187.378906 455.5 179.410156 455.5 169.578125 Z M 455.5 169.578125 " clip-rule="nonzero"/></clipPath><clipPath id="13a80f6894"><path d="M 115 558 L 147 558 L 147 594 L 115 594 Z M 115 558 " clip-rule="nonzero"/></clipPath><clipPath id="d0862cbf4a"><path d="M 110.621094 586.792969 L 123.527344 553.582031 L 151.585938 564.488281 L 138.679688 597.699219 Z M 110.621094 586.792969 " clip-rule="nonzero"/></clipPath><clipPath id="aaa8e371d7"><path d="M 117.070312 570.199219 C 113.507812 579.363281 116.902344 589.234375 124.648438 592.246094 C 132.398438 595.257812 141.566406 590.269531 145.128906 581.105469 C 148.691406 571.941406 145.296875 562.070312 137.546875 559.058594 C 129.796875 556.046875 120.628906 561.035156 117.070312 570.199219 Z M 117.070312 570.199219 " clip-rule="nonzero"/></clipPath><clipPath id="48125b3ca1"><path d="M 403.953125 0 L 675.046875 0 L 675.046875 131.882812 L 403.953125 131.882812 Z M 403.953125 0 " clip-rule="nonzero"/></clipPath><clipPath id="b1ce496c4d"><path d="M 660.136719 98.785156 L 682.773438 98.785156 L 682.773438 134.0625 L 660.136719 134.0625 Z M 660.136719 98.785156 " clip-rule="nonzero"/></clipPath><clipPath id="8588cdc341"><path d="M 682.773438 116.414062 C 682.773438 106.675781 677.707031 98.785156 671.453125 98.785156 C 665.203125 98.785156 660.136719 106.675781 660.136719 116.414062 C 660.136719 126.148438 665.203125 134.039062 671.453125 134.039062 C 677.707031 134.039062 682.773438 126.148438 682.773438 116.414062 Z M 682.773438 116.414062 " clip-rule="nonzero"/></clipPath></defs><g clip-path="url(#3d566da6eb)"><path fill="#3cb517" d="M 3.160156 408.144531 L 32.765625 408.144531 C 32.765625 613.402344 199.742188 780.390625 405 780.390625 C 610.257812 780.390625 777.246094 613.402344 777.246094 408.144531 L 806.855469 408.144531 C 806.855469 515.488281 765.050781 616.394531 689.164062 692.292969 C 613.261719 768.195312 512.34375 810 405 810 C 297.65625 810 196.75 768.195312 120.851562 692.292969 C 44.953125 616.394531 3.160156 515.472656 3.160156 408.144531 Z M 3.160156 408.144531 " fill-opacity="1" fill-rule="nonzero"/></g><g clip-path="url(#86646c81f9)"><path fill="#3cb517" d="M 404.921875 0.0859375 L 404.921875 29.691406 C 199.664062 29.691406 32.675781 196.667969 32.675781 401.925781 C 32.675781 607.183594 199.664062 774.171875 404.921875 774.171875 L 404.921875 803.78125 C 297.578125 803.78125 196.671875 761.972656 120.773438 686.089844 C 44.875 610.1875 3.066406 509.269531 3.066406 401.925781 C 3.066406 294.582031 44.875 193.675781 120.773438 117.777344 C 196.671875 41.875 297.59375 0.0859375 404.921875 0.0859375 Z M 404.921875 0.0859375 " fill-opacity="1" fill-rule="nonzero"/></g><path stroke-linecap="butt" transform="matrix(1.046691, 0.000000000000000207, -0.000000000000000207, 1.046691, 204.03528, 392.893565)" fill="none" stroke-linejoin="miter" d="M -0.000118646 14.499739 L 576.00031 14.499739 " stroke="#3cb517" stroke-width="29" stroke-opacity="1" stroke-miterlimit="4"/><path stroke-linecap="butt" transform="matrix(-0.367925, -0.979895, 0.979895, -0.367925, 419.793582, 581.915487)" fill="none" stroke-linejoin="miter" d="M -0.00191877 14.501166 L 400.528236 14.498823 " stroke="#3cb517" stroke-width="29" stroke-opacity="1" stroke-miterlimit="4"/><path stroke-linecap="butt" transform="matrix(0, -1.046691, 1.046691, 0, 425.270022, 577.727271)" fill="none" stroke-linejoin="miter" d="M 0.000676833 14.498346 L 390.684973 14.498346 " stroke="#3cb517" stroke-width="29" stroke-opacity="1" stroke-miterlimit="4"/><path stroke-linecap="butt" transform="matrix(0.374682, -0.977331, 0.977331, 0.374682, 116.91815, 570.218847)" fill="none" stroke-linejoin="miter" d="M -0.000413242 14.50056 L 400.528196 14.500172 " stroke="#3cb517" stroke-width="29" stroke-opacity="1" stroke-miterlimit="4"/><path stroke-linecap="butt" transform="matrix(-0.367925, -0.979895, 0.979895, -0.367925, 735.835214, 583.063647)" fill="none" stroke-linejoin="miter" d="M -0.00130407 14.498775 L 400.527538 14.499926 " stroke="#3cb517" stroke-width="29" stroke-opacity="1" stroke-miterlimit="4"/><path stroke-linecap="butt" transform="matrix(0.374682, -0.977331, 0.977331, 0.374682, 432.959766, 571.366983)" fill="none" stroke-linejoin="miter" d="M -0.000219377 14.50187 L 400.52839 14.501483 " stroke="#3cb517" stroke-width="29" stroke-opacity="1" stroke-miterlimit="4"/><g clip-path="url(#fe0610ecb8)"><g clip-path="url(#bb406630f8)"><path fill="#3cb517" d="M 266.132812 168.808594 L 301.78125 168.808594 L 301.78125 195.96875 L 266.132812 195.96875 Z M 266.132812 168.808594 " fill-opacity="1" fill-rule="nonzero"/></g></g><g clip-path="url(#24cfa9d72b)"><g clip-path="url(#afb76f5b0d)"><path fill="#3cb517" d="M 581.640625 169.582031 L 617.289062 169.582031 L 617.289062 196.742188 L 581.640625 196.742188 Z M 581.640625 169.582031 " fill-opacity="1" fill-rule="nonzero"/></g></g><g clip-path="url(#25433fbe22)"><g clip-path="url(#8d53d0f989)"><path fill="#3cb517" d="M 418.5 564.152344 L 462.425781 564.152344 L 462.425781 591.316406 L 418.5 591.316406 Z M 418.5 564.152344 " fill-opacity="1" fill-rule="nonzero"/></g></g><g clip-path="url(#f0956466f5)"><g clip-path="url(#8cc0e4efa5)"><path fill="#3cb517" d="M 455.5 151.773438 L 455.5 187.40625 L 425.394531 187.40625 L 425.394531 151.773438 Z M 455.5 151.773438 " fill-opacity="1" fill-rule="nonzero"/></g></g><g clip-path="url(#13a80f6894)"><g clip-path="url(#d0862cbf4a)"><g clip-path="url(#aaa8e371d7)"><path fill="#3cb517" d="M 110.621094 586.792969 L 123.527344 553.582031 L 151.585938 564.488281 L 138.679688 597.699219 Z M 110.621094 586.792969 " fill-opacity="1" fill-rule="nonzero"/></g></g></g><g clip-path="url(#48125b3ca1)"><path fill="#3cb517" d="M 811.933594 401.855469 L 782.328125 401.855469 C 782.328125 196.597656 615.351562 29.609375 410.09375 29.609375 C 204.835938 29.609375 37.847656 196.597656 37.847656 401.855469 L 8.238281 401.855469 C 8.238281 294.511719 50.046875 193.605469 125.929688 117.707031 C 201.832031 41.804688 302.75 0 410.09375 0 C 517.4375 0 618.34375 41.804688 694.242188 117.707031 C 770.144531 193.605469 811.933594 294.527344 811.933594 401.855469 Z M 811.933594 401.855469 " fill-opacity="1" fill-rule="nonzero"/></g><g clip-path="url(#b1ce496c4d)"><g clip-path="url(#8588cdc341)"><path fill="#3cb517" d="M 682.773438 98.785156 L 682.773438 134.0625 L 660.136719 134.0625 L 660.136719 98.785156 Z M 682.773438 98.785156 " fill-opacity="1" fill-rule="nonzero"/></g></g></svg>